# xmcd
#
# Track frame offsets:
#	150
#	16615
#	38970
#	55896
#	74681
#	109331
#	126913
#	144736
#	160733
#	175903
#	191051
#	211203
#	233918
#	260454
#	290604
#	307543
#	326984
#	340409
#
# Disc length: 4769 seconds
#
# Revision: 1
# Processed by: cddbd v1.5.2PL0 Copyright (c) Steve Scherf et al.
# Submitted via: EasyCDDAExtractor 7.0.5.1
#
DISCID=12129f12
DTITLE=Dido - Блокбастер Music Collection
DYEAR=1900
DGENRE=Pop
TTITLE0=Life for rent
TTITLE1=Sand in my shoes
TTITLE2=Don`t leave home
TTITLE3=Here with me
TTITLE4=One step too far
TTITLE5=Hunter
TTITLE6=White Flag
TTITLE7=Thank you
TTITLE8=Honestly ok
TTITLE9=Closer
TTITLE10=Don`t think of me
TTITLE11=See the sun
TTITLE12=Stoned
TTITLE13=Take my hand
TTITLE14=This land is mine
TTITLE15=Who makes you feel
TTITLE16=My life
TTITLE17=I`m no angel
EXTD=
EXTT0=
EXTT1=
EXTT2=
EXTT3=
EXTT4=
EXTT5=
EXTT6=
EXTT7=
EXTT8=
EXTT9=
EXTT10=
EXTT11=
EXTT12=
EXTT13=
EXTT14=
EXTT15=
EXTT16=
EXTT17=
PLAYORDER=
